<?xml version="1.0" encoding="UTF-8"?>
<svg xmlns:xlink="http://www.w3.org/1999/xlink"
    height="32px"
    version="1.1"
    viewBox="0 0 32 32"
    width="32px"
    xmlns="http://www.w3.org/2000/svg">

    <path
        d="M11.5,2.5 C7.63400675,2.5 4.5,5.63400675 4.5,9.5 L4.5,27.25 C4.5,29.0449254 5.95507456,30.5 7.75,30.5 L24.25,30.5 C26.0449254,30.5 27.5,29.0449254 27.5,27.25 L27.5,9.5 C27.5,5.63400675 24.3659932,2.5 20.5,2.5 L11.5,2.5 Z"
        fill="#F5F5F5"
        stroke="#D3D3D3"
        stroke-width="1"></path>
    <path
        d="M20.069159,12.5132396 L19.1724671,12.5132396 L19.1724671,11.1451638 C19.1724671,9.41038737 17.7491466,8 15.9984624,8 C14.2477783,8 12.8244578,9.41038737 12.8244578,11.1451638 L12.8244578,12.5132396 L11.9277659,12.5132396 C11.6858014,12.5132396 11.5007698,12.69659 11.5007698,12.9363558 L11.5007698,19.5651765 C11.4865366,19.7908385 11.6715682,19.9741888 11.8992995,19.9882927 L20.069159,19.9882927 C20.2968902,20.0023966 20.4819219,19.8190462 20.4961551,19.5933842 L20.4961551,12.9363558 C20.4961551,12.69659 20.3111234,12.5132396 20.069159,12.5132396 Z M16.4254586,16.941856 L16.4254586,18.0419581 L15.5714663,18.0419581 L15.5714663,16.941856 C15.1871698,16.7726095 14.9452053,16.4059088 14.9452053,15.9968964 C14.9452053,15.4186376 15.4149011,14.9532098 15.9984624,14.9532098 C16.5820238,14.9532098 17.0517196,15.4186376 17.0517196,15.9968964 C17.0517196,16.4059088 16.8097551,16.7726095 16.4254586,16.941856 Z M18.3184748,12.5132396 L13.6784501,12.5132396 L13.6784501,11.1451638 C13.6784501,9.87581521 14.717474,8.84623242 15.9984624,8.84623242 C17.2794509,8.84623242 18.3184748,9.87581521 18.3184748,11.1451638 L18.3184748,12.5132396 Z"
        fill="#C1C1C1"></path>
    <path
        d="M30.5,15.2439024 C30.5,13.7297763 29.2560651,12.5 27.71875,12.5 C26.1814349,12.5 24.9375,13.7297763 24.9375,15.2439024 L24.9375,22.6371951 C24.9375,23.9488714 23.8741763,25.0121951 22.5625,25.0121951 L9.4375,25.0121951 C8.12582372,25.0121951 7.0625,23.9488714 7.0625,22.6371951 L7.0625,15.2439024 C7.0625,13.7297763 5.81856508,12.5 4.28125,12.5 C2.74393492,12.5 1.5,13.7297763 1.5,15.2439024 L1.5,25.375 C1.5,28.2054593 3.79454066,30.5 6.625,30.5 L25.375,30.5 C28.2054593,30.5 30.5,28.2054593 30.5,25.375 L30.5,15.2439024 Z"
        fill="#F5F5F5"
        stroke="#D3D3D3"
        stroke-width="1"></path>
</svg>