<?xml version="1.0" encoding="UTF-8"?>
<svg xmlns:xlink="http://www.w3.org/1999/xlink"
    height="32px"
    version="1.1"
    viewBox="0 0 32 32"
    width="32px"
    xmlns="http://www.w3.org/2000/svg">
    <circle
        cx="16"
        cy="16"
        fill="#F5F5F5"
        id="Oval-Copy-2"
        r="14.5"
        stroke="#D3D3D3"
        stroke-width="1"></circle>
    <path
        d="M8.56915897,4.5132396 L7.67246708,4.5132396 L7.67246708,3.14516385 C7.67246708,1.41038737 6.24914661,0 4.49846244,0 C2.74777827,0 1.32445781,1.41038737 1.32445781,3.14516385 L1.32445781,4.5132396 L0.427765919,4.5132396 C0.18580144,4.5132396 0.000769779727,4.69658996 0.000769779727,4.93635581 L0.000769779727,11.5651765 C-0.0134634249,11.7908385 0.171568235,11.9741888 0.399299509,11.9882927 L8.56915897,11.9882927 C8.79689024,12.0023966 8.9819219,11.8190462 8.99615511,11.5933842 L8.99615511,4.93635581 C8.99615511,4.69658996 8.81112345,4.5132396 8.56915897,4.5132396 Z M4.92545858,8.94185595 L4.92545858,10.0419581 L4.0714663,10.0419581 L4.0714663,8.94185595 C3.68716978,8.77260947 3.4452053,8.40590875 3.4452053,7.99689641 C3.4452053,7.41863759 3.91490105,6.95320976 4.49846244,6.95320976 C5.08202383,6.95320976 5.55171959,7.41863759 5.55171959,7.99689641 C5.55171959,8.40590875 5.30975511,8.77260947 4.92545858,8.94185595 Z M6.8184748,4.5132396 L2.17845009,4.5132396 L2.17845009,3.14516385 C2.17845009,1.87581521 3.21747403,0.846232425 4.49846244,0.846232425 C5.77945086,0.846232425 6.8184748,1.87581521 6.8184748,3.14516385 L6.8184748,4.5132396 Z"
        fill="#C1C1C1"
        transform="translate(11.500000, 10.000000)"></path>
</svg>