<?xml version="1.0" encoding="UTF-8"?>
<svg xmlns:xlink="http://www.w3.org/1999/xlink"
    height="32px"
    version="1.1"
    viewBox="0 0 32 32"
    width="32px"
    xmlns="http://www.w3.org/2000/svg">
    <path
        d="M5,12.0780636 C4.76868433,12.0269596 4.52815179,12 4.28125,12 C4.18650855,12 4.09270492,12.0039696 4,12.0117497 L4,9.5 C4,5.35786438 7.35786438,2 11.5,2 L20.5,2 C24.6421356,2 28,5.35786438 28,9.5 L28,12.0117497 C27.9072951,12.0039696 27.8134915,12 27.71875,12 C27.4718482,12 27.2313157,12.0269596 27,12.0780636 L27,9.5 C27,5.91014913 24.0898509,3 20.5,3 L11.5,3 C7.91014913,3 5,5.91014913 5,9.5 L5,12.0780636 Z"
        fill="#BD3382"></path>
    <path
        d="M27,13.1135708 C26.0911064,13.4100334 25.4375,14.2533552 25.4375,15.2439024 L25.4375,22.6371951 C25.4375,24.2250138 24.1503187,25.5121951 22.5625,25.5121951 L9.4375,25.5121951 C7.84968134,25.5121951 6.5625,24.2250138 6.5625,22.6371951 L6.5625,15.2439024 C6.5625,14.2533552 5.90889365,13.4100334 5,13.1135708 L5,9.5 C5,5.91014913 7.91014913,3 11.5,3 L20.5,3 C24.0898509,3 27,5.91014913 27,9.5 L27,13.1135708 Z"
        fill="#FDDCEF"></path>
    <path
        d="M30,15.2439024 C30,14.007208 28.9811958,13 27.71875,13 C26.4563042,13 25.4375,14.007208 25.4375,15.2439024 L25.4375,22.6371951 C25.4375,24.2250138 24.1503187,25.5121951 22.5625,25.5121951 L9.4375,25.5121951 C7.84968134,25.5121951 6.5625,24.2250138 6.5625,22.6371951 L6.5625,15.2439024 C6.5625,14.007208 5.54369583,13 4.28125,13 C3.01880417,13 2,14.007208 2,15.2439024 L2,25.375 C2,27.929317 4.07068303,30 6.625,30 L25.375,30 C27.929317,30 30,27.929317 30,25.375 L30,15.2439024 Z M31,25.375 C31,28.4816017 28.4816017,31 25.375,31 L6.625,31 C3.51839828,31 1,28.4816017 1,25.375 L1,15.2439024 C1,13.4523446 2.46906566,12 4.28125,12 C6.09343434,12 7.5625,13.4523446 7.5625,15.2439024 L7.5625,22.6371951 C7.5625,23.672729 8.40196609,24.5121951 9.4375,24.5121951 L22.5625,24.5121951 C23.5980339,24.5121951 24.4375,23.672729 24.4375,22.6371951 L24.4375,15.2439024 C24.4375,13.4523446 25.9065657,12 27.71875,12 C29.5309343,12 31,13.4523446 31,15.2439024 L31,25.375 Z"
        fill="#BD3382"></path>
    <path
        d="M30,15.2439024 C30,14.007208 28.9811958,13 27.71875,13 C26.4563042,13 25.4375,14.007208 25.4375,15.2439024 L25.4375,22.6371951 C25.4375,24.2250138 24.1503187,25.5121951 22.5625,25.5121951 L9.4375,25.5121951 C7.84968134,25.5121951 6.5625,24.2250138 6.5625,22.6371951 L6.5625,15.2439024 C6.5625,14.007208 5.54369583,13 4.28125,13 C3.01880417,13 2,14.007208 2,15.2439024 L2,25.375 C2,27.929317 4.07068303,30 6.625,30 L25.375,30 C27.929317,30 30,27.929317 30,25.375 L30,15.2439024 Z"
        fill="#FDDCEF"></path>
    <!--</g>-->
</svg>